<svg xmlns="http://www.w3.org/2000/svg" xmlns:xlink="http://www.w3.org/1999/xlink" width="500" zoomAndPan="magnify" viewBox="0 0 375 374.999991" height="500" preserveAspectRatio="xMidYMid meet" version="1.0"><defs><g/><clipPath id="4cc79ab311"><path d="M 74 89 L 156 89 L 156 295 L 74 295 Z M 74 89 " clip-rule="nonzero"/></clipPath><clipPath id="86cc1fa91c"><path d="M 92.460938 23.683594 L 169.738281 34.261719 L 133.527344 298.796875 L 56.25 288.214844 Z M 92.460938 23.683594 " clip-rule="nonzero"/></clipPath><clipPath id="eae3cda79e"><path d="M 92.460938 23.683594 L 169.738281 34.261719 L 133.527344 298.796875 L 56.25 288.214844 Z M 92.460938 23.683594 " clip-rule="nonzero"/></clipPath><clipPath id="3a040b82c4"><path d="M 90 30 L 158 30 L 158 110 L 90 110 Z M 90 30 " clip-rule="nonzero"/></clipPath><clipPath id="bcc3535635"><path d="M 92.460938 23.683594 L 169.738281 34.261719 L 133.527344 298.796875 L 56.25 288.214844 Z M 92.460938 23.683594 " clip-rule="nonzero"/></clipPath><clipPath id="62440a7c3a"><path d="M 92.460938 23.683594 L 169.738281 34.261719 L 133.527344 298.796875 L 56.25 288.214844 Z M 92.460938 23.683594 " clip-rule="nonzero"/></clipPath><clipPath id="6b1bb26324"><path d="M 95 43 L 158 43 L 158 120 L 95 120 Z M 95 43 " clip-rule="nonzero"/></clipPath><clipPath id="2af679ec40"><path d="M 92.460938 23.683594 L 169.738281 34.261719 L 133.527344 298.796875 L 56.25 288.214844 Z M 92.460938 23.683594 " clip-rule="nonzero"/></clipPath><clipPath id="98c05587c6"><path d="M 92.460938 23.683594 L 169.738281 34.261719 L 133.527344 298.796875 L 56.25 288.214844 Z M 92.460938 23.683594 " clip-rule="nonzero"/></clipPath><clipPath id="4671edb3eb"><path d="M 85 39 L 135 39 L 135 121 L 85 121 Z M 85 39 " clip-rule="nonzero"/></clipPath><clipPath id="123ba1aa4f"><path d="M 92.460938 23.683594 L 169.738281 34.261719 L 133.527344 298.796875 L 56.25 288.214844 Z M 92.460938 23.683594 " clip-rule="nonzero"/></clipPath><clipPath id="85d78656d8"><path d="M 92.460938 23.683594 L 169.738281 34.261719 L 133.527344 298.796875 L 56.25 288.214844 Z M 92.460938 23.683594 " clip-rule="nonzero"/></clipPath><clipPath id="8642cb609a"><path d="M 94.632812 92.832031 L 139.617188 92.832031 L 139.617188 137.816406 L 94.632812 137.816406 Z M 94.632812 92.832031 " clip-rule="nonzero"/></clipPath><clipPath id="efab3ea39a"><path d="M 117.125 92.832031 C 104.703125 92.832031 94.632812 102.902344 94.632812 115.324219 C 94.632812 127.746094 104.703125 137.816406 117.125 137.816406 C 129.546875 137.816406 139.617188 127.746094 139.617188 115.324219 C 139.617188 102.902344 129.546875 92.832031 117.125 92.832031 Z M 117.125 92.832031 " clip-rule="nonzero"/></clipPath><clipPath id="9ba008712d"><path d="M 74 89 L 156 89 L 156 258 L 74 258 Z M 74 89 " clip-rule="nonzero"/></clipPath><clipPath id="ed7f625439"><path d="M 92.460938 23.683594 L 169.738281 34.261719 L 139.222656 257.183594 L 61.945312 246.605469 Z M 92.460938 23.683594 " clip-rule="nonzero"/></clipPath><clipPath id="e16b3d9efe"><path d="M 92.460938 23.683594 L 169.738281 34.261719 L 133.527344 298.796875 L 56.25 288.214844 Z M 92.460938 23.683594 " clip-rule="nonzero"/></clipPath><clipPath id="36fbb47b38"><path d="M 90 30 L 158 30 L 158 110 L 90 110 Z M 90 30 " clip-rule="nonzero"/></clipPath><clipPath id="0127f40686"><path d="M 92.460938 23.683594 L 169.738281 34.261719 L 139.222656 257.183594 L 61.945312 246.605469 Z M 92.460938 23.683594 " clip-rule="nonzero"/></clipPath><clipPath id="5d65320622"><path d="M 92.460938 23.683594 L 169.738281 34.261719 L 133.527344 298.796875 L 56.25 288.214844 Z M 92.460938 23.683594 " clip-rule="nonzero"/></clipPath><clipPath id="774f55a644"><path d="M 95 43 L 158 43 L 158 120 L 95 120 Z M 95 43 " clip-rule="nonzero"/></clipPath><clipPath id="6ef2a80a1f"><path d="M 92.460938 23.683594 L 169.738281 34.261719 L 139.222656 257.183594 L 61.945312 246.605469 Z M 92.460938 23.683594 " clip-rule="nonzero"/></clipPath><clipPath id="052c35d0d2"><path d="M 92.460938 23.683594 L 169.738281 34.261719 L 133.527344 298.796875 L 56.25 288.214844 Z M 92.460938 23.683594 " clip-rule="nonzero"/></clipPath><clipPath id="c2782750da"><path d="M 85 39 L 135 39 L 135 121 L 85 121 Z M 85 39 " clip-rule="nonzero"/></clipPath><clipPath id="86b57b4eea"><path d="M 92.460938 23.683594 L 169.738281 34.261719 L 139.222656 257.183594 L 61.945312 246.605469 Z M 92.460938 23.683594 " clip-rule="nonzero"/></clipPath><clipPath id="bbd9192fee"><path d="M 92.460938 23.683594 L 169.738281 34.261719 L 133.527344 298.796875 L 56.25 288.214844 Z M 92.460938 23.683594 " clip-rule="nonzero"/></clipPath></defs><g clip-path="url(#4cc79ab311)"><g clip-path="url(#86cc1fa91c)"><g clip-path="url(#eae3cda79e)"><path fill="#43b262" d="M 155.109375 140.800781 C 154.59375 144.675781 153.804688 148.515625 152.96875 152.332031 C 151.773438 157.816406 150.527344 163.285156 149.355469 168.773438 C 147.980469 175.199219 146.589844 181.621094 145.121094 188.023438 C 143.484375 195.167969 141.753906 202.289062 139.832031 209.359375 C 138 216.097656 136.015625 222.804688 133.632812 229.367188 C 131.738281 234.601562 129.621094 239.84375 126.695312 244.597656 C 122.484375 251.445312 117.953125 258.105469 113.378906 264.71875 C 109.269531 270.65625 105.082031 276.539062 100.84375 282.382812 C 100.628906 282.679688 100.414062 282.976562 100.199219 283.273438 C 100.003906 284.945312 99.8125 286.621094 99.617188 288.292969 C 99.410156 290.113281 99.199219 291.929688 98.988281 293.75 C 98.964844 293.96875 98.746094 294.125 98.53125 294.097656 C 96.113281 293.765625 93.695312 293.433594 91.277344 293.105469 C 91.058594 293.074219 90.902344 292.863281 90.929688 292.648438 C 90.945312 292.53125 90.960938 292.417969 90.972656 292.300781 C 91.253906 289.675781 91.605469 287.054688 91.921875 284.429688 C 92.0625 283.257812 92.207031 282.082031 92.347656 280.910156 C 91.277344 278.03125 90.21875 275.144531 89.175781 272.253906 C 86.457031 264.71875 83.8125 257.152344 81.332031 249.535156 C 79.304688 243.3125 77.175781 237.085938 76.164062 230.605469 C 75.175781 224.289062 74.8125 217.875 74.636719 211.492188 C 74.4375 204.242188 74.523438 196.988281 74.738281 189.746094 C 74.949219 182.613281 75.296875 175.484375 75.703125 168.359375 C 76.03125 162.574219 76.410156 156.792969 76.742188 151.007812 C 77.136719 144.183594 77.285156 137.328125 78.210938 130.542969 C 78.328125 129.671875 79.261719 121.390625 81.722656 123.59375 C 82.5625 124.34375 82.921875 125.683594 83.273438 126.707031 C 83.976562 128.761719 84.566406 130.855469 85.136719 132.949219 C 86.914062 139.449219 88.441406 146.019531 89.828125 152.613281 C 91.460938 160.367188 92.898438 168.167969 93.953125 176.019531 C 94.640625 181.101562 95.066406 186.203125 95.378906 191.320312 C 95.667969 196.097656 95.902344 200.878906 96.125 205.660156 C 96.398438 211.503906 96.644531 217.34375 96.878906 223.1875 C 97.082031 228.300781 97.273438 233.417969 97.460938 238.53125 C 98.324219 231.378906 99.1875 224.230469 100.050781 217.078125 C 101.230469 207.304688 102.410156 197.535156 103.589844 187.761719 C 104.765625 178.015625 105.941406 168.265625 107.121094 158.519531 C 108.1875 149.679688 109.253906 140.839844 110.320312 132.003906 C 111.199219 124.707031 112.082031 117.414062 112.960938 110.117188 C 113.550781 105.21875 114.144531 100.316406 114.734375 95.414062 C 114.953125 93.597656 115.175781 91.78125 115.394531 89.964844 C 115.410156 89.8125 115.496094 89.722656 115.597656 89.671875 C 115.667969 89.628906 115.75 89.601562 115.851562 89.617188 C 117.917969 89.898438 119.984375 90.183594 122.054688 90.464844 C 122.273438 90.496094 122.425781 90.703125 122.402344 90.921875 C 122.386719 91.039062 122.371094 91.152344 122.359375 91.269531 C 122.089844 93.898438 121.753906 96.519531 121.453125 99.144531 C 120.808594 104.726562 120.164062 110.304688 119.519531 115.882812 C 118.628906 123.589844 117.742188 131.296875 116.851562 139.003906 C 115.792969 148.183594 114.730469 157.363281 113.671875 166.546875 C 112.542969 176.324219 111.414062 186.105469 110.285156 195.882812 C 109.160156 205.636719 108.035156 215.390625 106.90625 225.144531 C 105.902344 233.847656 104.898438 242.554688 103.894531 251.257812 C 105.664062 245.671875 107.445312 240.085938 109.230469 234.503906 C 111.105469 228.65625 112.988281 222.808594 114.890625 216.972656 C 116.574219 211.796875 118.273438 206.628906 120.003906 201.46875 C 121.285156 197.644531 122.578125 193.824219 123.953125 190.03125 C 126.394531 183.28125 129.324219 176.714844 132.425781 170.242188 C 135.746094 163.316406 139.285156 156.496094 143.007812 149.78125 C 145.574219 145.160156 148.164062 140.5 151.144531 136.128906 C 151.769531 135.214844 152.445312 134.085938 153.421875 133.503906 C 154.449219 132.890625 155.132812 133.652344 155.339844 134.648438 C 155.753906 136.617188 155.371094 138.839844 155.109375 140.800781 Z M 155.109375 140.800781 " fill-opacity="1" fill-rule="nonzero"/></g></g></g><g clip-path="url(#3a040b82c4)"><g clip-path="url(#bcc3535635)"><g clip-path="url(#62440a7c3a)"><path fill="#9782ff" d="M 156.265625 73.277344 C 154.722656 78.125 152.238281 82.640625 149.074219 86.621094 C 143.332031 93.847656 135.558594 99.25 127.308594 103.253906 C 121.917969 105.871094 116.234375 107.976562 110.414062 109.410156 C 109.859375 109.546875 109.292969 109.746094 108.722656 109.714844 C 107.855469 109.667969 106.988281 109.527344 106.140625 109.347656 C 102.640625 108.601562 99.289062 107.011719 96.65625 104.570312 C 92.460938 100.6875 90.578125 95.117188 90.214844 89.515625 C 89.929688 85.109375 90.460938 80.671875 91.371094 76.359375 C 92.671875 70.21875 94.746094 64.257812 97.140625 58.46875 C 97.4375 57.902344 97.757812 57.351562 98.082031 56.800781 C 100.144531 53.28125 102.46875 49.902344 105.054688 46.742188 C 108.425781 42.621094 112.3125 38.722656 116.964844 36.066406 C 120.90625 33.816406 125.453125 32.164062 129.875 31.1875 C 134.410156 30.183594 139.269531 30.066406 143.632812 31.851562 C 148.960938 34.035156 152.644531 38.789062 154.921875 43.933594 C 155.8125 45.945312 156.273438 48.148438 156.636719 50.304688 C 157.101562 53.074219 157.355469 55.878906 157.476562 58.679688 C 157.683594 63.488281 157.742188 68.644531 156.265625 73.277344 Z M 156.265625 73.277344 " fill-opacity="1" fill-rule="nonzero"/></g></g></g><g clip-path="url(#6b1bb26324)"><g clip-path="url(#2af679ec40)"><g clip-path="url(#98c05587c6)"><path fill="#6e5fb4" d="M 155.40625 92.152344 C 153.921875 100.15625 151.445312 108.980469 145.421875 114.824219 C 142.753906 117.414062 139.398438 119.148438 135.722656 119.746094 C 133.089844 120.175781 130.429688 119.960938 127.785156 119.746094 C 123.804688 119.421875 119.839844 118.882812 115.921875 118.085938 C 110.652344 117.011719 105.429688 115.492188 100.523438 113.273438 C 98.773438 112.484375 96.96875 111.632812 95.398438 110.515625 C 95.226562 110.394531 95.1875 110.101562 95.328125 109.941406 C 95.363281 109.90625 95.402344 109.867188 95.433594 109.828125 C 96.109375 108.921875 96.964844 108.109375 97.714844 107.265625 C 99.332031 105.449219 100.953125 103.632812 102.570312 101.8125 C 107.476562 96.3125 112.378906 90.808594 117.28125 85.304688 C 122.957031 78.9375 128.628906 72.570312 134.300781 66.203125 C 138.980469 60.953125 143.65625 55.703125 148.335938 50.453125 C 150.300781 48.246094 152.261719 46.042969 154.226562 43.839844 C 154.238281 43.828125 154.25 43.824219 154.261719 43.816406 C 154.273438 43.796875 154.28125 43.78125 154.300781 43.765625 C 155.203125 43.0625 156.605469 43.175781 157.277344 44.15625 C 157.6875 44.757812 157.546875 45.488281 157.519531 46.171875 C 157.496094 46.746094 157.484375 47.324219 157.476562 47.898438 C 157.460938 49.351562 157.476562 50.804688 157.492188 52.257812 C 157.53125 56.148438 157.589844 60.042969 157.570312 63.933594 C 157.523438 73.359375 157.125 82.863281 155.40625 92.152344 Z M 155.40625 92.152344 " fill-opacity="1" fill-rule="nonzero"/></g></g></g><g clip-path="url(#4671edb3eb)"><g clip-path="url(#123ba1aa4f)"><g clip-path="url(#85d78656d8)"><path fill="#e7e3fc" d="M 134.195312 120.375 C 134.167969 120.375 134.144531 120.375 134.117188 120.375 C 134.109375 120.375 134.101562 120.375 134.09375 120.375 C 133.8125 120.390625 133.53125 120.398438 133.25 120.40625 C 127.398438 120.578125 121.507812 120.273438 115.707031 119.496094 C 107.890625 118.453125 99.46875 116.589844 93.015625 111.800781 C 90.105469 109.640625 87.707031 106.761719 86.5625 103.289062 C 85.550781 100.210938 85.65625 97 85.976562 93.820312 C 86.859375 85.121094 89.027344 76.492188 91.433594 68.101562 C 92.714844 63.628906 94.132812 59.191406 95.769531 54.835938 C 97.074219 51.363281 98.488281 47.886719 100.347656 44.667969 C 101.308594 43.003906 102.644531 40.566406 104.636719 39.957031 C 106.3125 39.445312 107.3125 41.015625 108.035156 42.261719 C 109.316406 44.46875 110.308594 46.851562 111.277344 49.210938 C 112.703125 52.679688 114.007812 56.195312 115.273438 59.722656 C 118.367188 68.328125 121.222656 77.019531 124.011719 85.722656 C 126.53125 93.59375 128.984375 101.488281 131.386719 109.394531 C 132.441406 112.867188 133.492188 116.335938 134.515625 119.816406 C 134.527344 119.855469 134.527344 119.894531 134.527344 119.933594 C 134.53125 119.949219 134.53125 119.960938 134.53125 119.976562 C 134.53125 119.984375 134.53125 119.992188 134.53125 119.996094 C 134.535156 120.183594 134.433594 120.359375 134.195312 120.375 Z M 134.195312 120.375 " fill-opacity="1" fill-rule="nonzero"/></g></g></g><g fill="#9782ff" fill-opacity="1"><g transform="translate(87.53608, 297.339207)"><g><path d="M 126.046875 -108.4375 C 106.066406 -108.4375 96.285156 -113.484375 96.703125 -123.578125 C 96.703125 -133.054688 106.28125 -137.796875 125.4375 -137.796875 C 129.96875 -137.796875 134.289062 -137.28125 138.40625 -136.25 C 145.207031 -143.039062 148.609375 -153.335938 148.609375 -167.140625 C 148.609375 -191.035156 132.644531 -202.984375 100.71875 -202.984375 C 84.03125 -202.984375 68.171875 -199.378906 53.140625 -192.171875 C 47.578125 -189.492188 42.582031 -187.019531 38.15625 -184.75 C 33.726562 -182.488281 29.660156 -181.359375 25.953125 -181.359375 C 22.242188 -181.359375 20.390625 -182.488281 20.390625 -184.75 C 20.390625 -187.425781 22.445312 -191.390625 26.5625 -196.640625 C 30.6875 -201.898438 36.457031 -207.207031 43.875 -212.5625 C 62.820312 -225.738281 84.34375 -232.429688 108.4375 -232.640625 C 139.957031 -232.640625 163.128906 -226.359375 177.953125 -213.796875 C 190.722656 -203.285156 197.109375 -188.96875 197.109375 -170.84375 C 197.109375 -149.84375 186.8125 -133.78125 166.21875 -122.65625 C 185.988281 -111.320312 197.726562 -97.421875 201.4375 -80.953125 C 202.675781 -75.179688 203.296875 -67.554688 203.296875 -58.078125 C 203.296875 -48.609375 200.71875 -39.648438 195.5625 -31.203125 C 190.414062 -22.753906 183.519531 -15.648438 174.875 -9.890625 C 157.570312 1.234375 135.425781 6.796875 108.4375 6.796875 C 89.28125 6.796875 67.960938 2.472656 44.484375 -6.171875 C 28.835938 -11.941406 17.304688 -18.84375 9.890625 -26.875 C 6.179688 -30.789062 4.378906 -34.703125 4.484375 -38.609375 C 4.585938 -42.523438 6.539062 -44.484375 10.34375 -44.484375 C 14.15625 -44.484375 21.414062 -43.144531 32.125 -40.46875 L 32.125 -40.78125 C 32.125 -56.84375 33.976562 -73.320312 37.6875 -90.21875 C 44.070312 -119.664062 51.488281 -142.734375 59.9375 -159.421875 C 69 -177.953125 78.367188 -187.21875 88.046875 -187.21875 C 90.722656 -187.21875 92.0625 -182.582031 92.0625 -173.3125 C 92.0625 -164.050781 91.1875 -154.578125 89.4375 -144.890625 C 87.6875 -135.210938 85.832031 -125.6875 83.875 -116.3125 C 81.925781 -106.945312 80.070312 -98.453125 78.3125 -90.828125 C 76.5625 -83.210938 75.6875 -77.753906 75.6875 -74.453125 L 72.609375 -27.8125 C 84.753906 -24.507812 95.050781 -22.859375 103.5 -22.859375 C 111.945312 -22.859375 119.566406 -24.300781 126.359375 -27.1875 C 143.453125 -34.394531 152 -46.957031 152 -64.875 C 152 -75.59375 150.96875 -84.453125 148.90625 -91.453125 C 146.851562 -98.453125 143.148438 -104.628906 137.796875 -109.984375 C 133.054688 -108.953125 129.140625 -108.4375 126.046875 -108.4375 Z M 126.046875 -108.4375 "/></g></g></g><g clip-path="url(#8642cb609a)"><g clip-path="url(#efab3ea39a)"><path fill="#ffffff" d="M 94.632812 92.832031 L 139.617188 92.832031 L 139.617188 137.816406 L 94.632812 137.816406 Z M 94.632812 92.832031 " fill-opacity="1" fill-rule="nonzero"/></g></g><g clip-path="url(#9ba008712d)"><g clip-path="url(#ed7f625439)"><g clip-path="url(#e16b3d9efe)"><path fill="#43b262" d="M 155.109375 140.800781 C 154.59375 144.675781 153.804688 148.515625 152.96875 152.332031 C 151.773438 157.816406 150.527344 163.285156 149.351562 168.773438 C 147.980469 175.199219 146.589844 181.621094 145.121094 188.023438 C 143.484375 195.167969 141.753906 202.289062 139.832031 209.359375 C 138 216.097656 136.015625 222.804688 133.632812 229.367188 C 131.738281 234.601562 129.621094 239.839844 126.695312 244.597656 C 122.480469 251.445312 117.953125 258.105469 113.375 264.71875 C 109.269531 270.65625 105.082031 276.539062 100.84375 282.382812 C 100.628906 282.679688 100.414062 282.976562 100.199219 283.273438 C 100.003906 284.945312 99.8125 286.621094 99.617188 288.292969 C 99.40625 290.113281 99.199219 291.929688 98.988281 293.75 C 98.964844 293.96875 98.746094 294.125 98.53125 294.097656 C 96.113281 293.765625 93.695312 293.433594 91.277344 293.105469 C 91.054688 293.074219 90.902344 292.863281 90.929688 292.648438 C 90.945312 292.53125 90.960938 292.417969 90.972656 292.300781 C 91.253906 289.675781 91.605469 287.054688 91.921875 284.429688 C 92.0625 283.257812 92.203125 282.082031 92.347656 280.910156 C 91.277344 278.03125 90.21875 275.144531 89.175781 272.253906 C 86.457031 264.71875 83.8125 257.152344 81.332031 249.535156 C 79.304688 243.3125 77.175781 237.085938 76.164062 230.605469 C 75.175781 224.289062 74.8125 217.875 74.636719 211.492188 C 74.4375 204.242188 74.523438 196.988281 74.738281 189.746094 C 74.949219 182.613281 75.296875 175.484375 75.699219 168.359375 C 76.03125 162.574219 76.410156 156.792969 76.742188 151.007812 C 77.132812 144.183594 77.28125 137.328125 78.207031 130.542969 C 78.328125 129.671875 79.257812 121.390625 81.722656 123.59375 C 82.5625 124.34375 82.921875 125.683594 83.273438 126.707031 C 83.976562 128.761719 84.566406 130.855469 85.136719 132.949219 C 86.914062 139.449219 88.441406 146.019531 89.828125 152.613281 C 91.460938 160.367188 92.898438 168.167969 93.953125 176.019531 C 94.636719 181.101562 95.066406 186.203125 95.375 191.320312 C 95.664062 196.097656 95.902344 200.878906 96.125 205.660156 C 96.398438 211.503906 96.644531 217.34375 96.878906 223.1875 C 97.082031 228.300781 97.273438 233.417969 97.460938 238.53125 C 98.324219 231.378906 99.1875 224.230469 100.050781 217.078125 C 101.230469 207.304688 102.410156 197.535156 103.589844 187.761719 C 104.765625 178.015625 105.941406 168.265625 107.117188 158.519531 C 108.183594 149.679688 109.253906 140.839844 110.320312 132.003906 C 111.199219 124.707031 112.082031 117.414062 112.960938 110.117188 C 113.550781 105.21875 114.144531 100.316406 114.734375 95.414062 C 114.953125 93.597656 115.171875 91.78125 115.394531 89.964844 C 115.410156 89.8125 115.496094 89.722656 115.597656 89.671875 C 115.667969 89.628906 115.75 89.601562 115.851562 89.617188 C 117.917969 89.898438 119.984375 90.183594 122.050781 90.464844 C 122.273438 90.496094 122.425781 90.703125 122.398438 90.921875 C 122.386719 91.039062 122.371094 91.152344 122.359375 91.269531 C 122.089844 93.898438 121.753906 96.519531 121.449219 99.144531 C 120.808594 104.726562 120.164062 110.304688 119.519531 115.882812 C 118.628906 123.589844 117.738281 131.296875 116.851562 139.003906 C 115.789062 148.183594 114.730469 157.363281 113.671875 166.546875 C 112.542969 176.324219 111.414062 186.105469 110.285156 195.882812 C 109.160156 205.636719 108.03125 215.390625 106.90625 225.144531 C 105.902344 233.847656 104.898438 242.554688 103.894531 251.257812 C 105.664062 245.671875 107.441406 240.085938 109.230469 234.5 C 111.105469 228.652344 112.988281 222.808594 114.890625 216.972656 C 116.574219 211.796875 118.269531 206.628906 120.003906 201.46875 C 121.285156 197.644531 122.578125 193.824219 123.953125 190.03125 C 126.394531 183.28125 129.324219 176.714844 132.425781 170.242188 C 135.746094 163.316406 139.285156 156.496094 143.007812 149.78125 C 145.574219 145.160156 148.164062 140.5 151.144531 136.128906 C 151.765625 135.214844 152.445312 134.085938 153.421875 133.503906 C 154.449219 132.890625 155.132812 133.652344 155.339844 134.648438 C 155.753906 136.617188 155.371094 138.839844 155.109375 140.800781 Z M 155.109375 140.800781 " fill-opacity="1" fill-rule="nonzero"/></g></g></g><g clip-path="url(#36fbb47b38)"><g clip-path="url(#0127f40686)"><g clip-path="url(#5d65320622)"><path fill="#9782ff" d="M 156.265625 73.277344 C 154.722656 78.125 152.238281 82.640625 149.074219 86.621094 C 143.332031 93.847656 135.558594 99.25 127.308594 103.253906 C 121.917969 105.871094 116.234375 107.976562 110.414062 109.410156 C 109.859375 109.546875 109.292969 109.746094 108.71875 109.714844 C 107.855469 109.667969 106.988281 109.527344 106.140625 109.347656 C 102.640625 108.601562 99.289062 107.011719 96.652344 104.570312 C 92.460938 100.6875 90.578125 95.117188 90.214844 89.515625 C 89.929688 85.109375 90.460938 80.671875 91.371094 76.359375 C 92.667969 70.21875 94.746094 64.257812 97.140625 58.46875 C 97.4375 57.902344 97.757812 57.351562 98.082031 56.800781 C 100.144531 53.28125 102.46875 49.902344 105.050781 46.742188 C 108.421875 42.621094 112.3125 38.722656 116.964844 36.066406 C 120.90625 33.816406 125.453125 32.164062 129.875 31.1875 C 134.410156 30.183594 139.269531 30.066406 143.632812 31.851562 C 148.960938 34.035156 152.644531 38.789062 154.921875 43.933594 C 155.8125 45.945312 156.273438 48.148438 156.636719 50.304688 C 157.101562 53.074219 157.355469 55.878906 157.472656 58.679688 C 157.679688 63.488281 157.738281 68.644531 156.265625 73.277344 Z M 156.265625 73.277344 " fill-opacity="1" fill-rule="nonzero"/></g></g></g><g clip-path="url(#774f55a644)"><g clip-path="url(#6ef2a80a1f)"><g clip-path="url(#052c35d0d2)"><path fill="#6e5fb4" d="M 155.40625 92.152344 C 153.921875 100.15625 151.445312 108.980469 145.421875 114.824219 C 142.753906 117.414062 139.398438 119.148438 135.722656 119.746094 C 133.089844 120.175781 130.429688 119.960938 127.785156 119.746094 C 123.804688 119.421875 119.835938 118.882812 115.921875 118.085938 C 110.652344 117.011719 105.429688 115.492188 100.523438 113.273438 C 98.773438 112.484375 96.96875 111.632812 95.398438 110.515625 C 95.226562 110.394531 95.1875 110.101562 95.328125 109.941406 C 95.363281 109.90625 95.402344 109.867188 95.433594 109.828125 C 96.109375 108.921875 96.960938 108.109375 97.714844 107.265625 C 99.332031 105.449219 100.953125 103.632812 102.570312 101.8125 C 107.476562 96.3125 112.378906 90.808594 117.28125 85.304688 C 122.953125 78.9375 128.628906 72.570312 134.300781 66.203125 C 138.980469 60.953125 143.65625 55.703125 148.335938 50.453125 C 150.296875 48.246094 152.261719 46.042969 154.226562 43.839844 C 154.238281 43.828125 154.25 43.824219 154.257812 43.816406 C 154.273438 43.796875 154.28125 43.78125 154.300781 43.765625 C 155.199219 43.0625 156.605469 43.175781 157.277344 44.15625 C 157.6875 44.757812 157.542969 45.488281 157.519531 46.171875 C 157.496094 46.746094 157.484375 47.324219 157.476562 47.898438 C 157.460938 49.351562 157.476562 50.804688 157.492188 52.257812 C 157.53125 56.148438 157.589844 60.042969 157.570312 63.933594 C 157.523438 73.359375 157.125 82.863281 155.40625 92.152344 Z M 155.40625 92.152344 " fill-opacity="1" fill-rule="nonzero"/></g></g></g><g clip-path="url(#c2782750da)"><g clip-path="url(#86b57b4eea)"><g clip-path="url(#bbd9192fee)"><path fill="#e7e3fc" d="M 134.195312 120.375 C 134.167969 120.375 134.144531 120.375 134.117188 120.375 C 134.109375 120.375 134.101562 120.375 134.09375 120.375 C 133.8125 120.390625 133.53125 120.398438 133.25 120.40625 C 127.398438 120.578125 121.507812 120.273438 115.707031 119.496094 C 107.890625 118.453125 99.46875 116.589844 93.015625 111.796875 C 90.105469 109.640625 87.703125 106.761719 86.5625 103.289062 C 85.550781 100.210938 85.65625 97 85.976562 93.820312 C 86.859375 85.121094 89.027344 76.492188 91.433594 68.101562 C 92.714844 63.628906 94.132812 59.191406 95.769531 54.835938 C 97.074219 51.363281 98.488281 47.886719 100.347656 44.667969 C 101.308594 43.003906 102.644531 40.566406 104.636719 39.957031 C 106.3125 39.445312 107.3125 41.015625 108.035156 42.261719 C 109.316406 44.46875 110.308594 46.851562 111.277344 49.210938 C 112.703125 52.679688 114.007812 56.195312 115.273438 59.722656 C 118.367188 68.328125 121.222656 77.015625 124.007812 85.722656 C 126.53125 93.59375 128.980469 101.488281 131.386719 109.394531 C 132.441406 112.867188 133.488281 116.335938 134.515625 119.816406 C 134.527344 119.855469 134.527344 119.894531 134.527344 119.933594 C 134.527344 119.949219 134.53125 119.960938 134.53125 119.976562 C 134.53125 119.984375 134.53125 119.992188 134.53125 119.996094 C 134.535156 120.183594 134.433594 120.359375 134.195312 120.375 Z M 134.195312 120.375 " fill-opacity="1" fill-rule="nonzero"/></g></g></g></svg>